<svg width="48" height="48" viewBox="0 0 48 48" fill="none" xmlns="http://www.w3.org/2000/svg">
    <path d="M0 8C0 3.58172 3.58172 0 8 0H40C44.4183 0 48 3.58172 48 8V40C48 44.4183 44.4183 48 40 48H8C3.58172 48 0 44.4183 0 40V8Z" fill="#E74D43"/>
    <g clip-path="url(#clip0_335_8797)">
        <path d="M23.7258 29.7266C27.0395 29.7266 29.7258 27.0403 29.7258 23.7266C29.7258 20.4129 27.0395 17.7266 23.7258 17.7266C20.4121 17.7266 17.7258 20.4129 17.7258 23.7266C17.7258 27.0403 20.4121 29.7266 23.7258 29.7266Z" stroke="white"/>
        <path d="M17.7258 17.2258V10.5H30.2742V17.2258V17.7258H30.7742H37.5V30.2742H30.7742H30.2742V30.7742V37.5H17.7258V30.7742V30.2742H17.2258H10.5V17.7258H17.2258H17.7258V17.2258Z" stroke="white"/>
        <path fill-rule="evenodd" clip-rule="evenodd" d="M23.9212 19.9547C24.0387 19.887 24.1178 19.7601 24.1178 19.6148C24.1178 19.3982 23.9423 19.2227 23.7257 19.2227C23.5091 19.2227 23.3336 19.3982 23.3336 19.6148C23.3336 19.7601 23.4127 19.887 23.5302 19.9547L23.5336 20.2355C23.3808 20.2727 23.2393 20.2292 23.1375 20.1049C22.883 19.7309 22.7297 19.7834 22.4513 20.0069L21.5691 20.595C22.3057 20.6882 22.82 20.7365 23.5391 20.6982L23.5581 22.2785C23.2593 22.2817 23.0388 22.2242 22.8873 22.1432C22.7099 22.0484 22.6314 21.9249 22.6168 21.8273C22.6028 21.7343 22.6432 21.6508 22.7412 21.6057C22.8449 21.5579 23.0265 21.5485 23.2898 21.6558C23.3399 21.6762 23.3971 21.6521 23.4176 21.602C23.438 21.5518 23.4139 21.4946 23.3638 21.4742C23.0729 21.3557 22.8306 21.3486 22.6591 21.4276C22.482 21.5092 22.396 21.6771 22.4229 21.8563C22.4491 22.031 22.5786 22.2005 22.7949 22.3161C22.8804 22.3619 22.9803 22.3997 23.0946 22.427C23.0387 22.4529 22.9882 22.4812 22.9432 22.5117C22.7689 22.6298 22.6679 22.7874 22.6745 22.9598C22.6811 23.1309 22.7924 23.2824 22.9682 23.3922C23.0443 23.4397 23.1343 23.4808 23.2374 23.5139C23.1814 23.5385 23.1313 23.5664 23.0873 23.5975C22.9417 23.7 22.8585 23.8398 22.8624 23.9934C22.8662 24.145 22.9543 24.2851 23.0979 24.3923C23.1566 24.4362 23.2256 24.4754 23.3044 24.509C23.232 24.5362 23.1672 24.5687 23.1105 24.6054C22.9634 24.7007 22.8631 24.8314 22.8482 24.981C22.8329 25.1342 22.9099 25.2774 23.0551 25.3878C23.1269 25.4423 23.2167 25.4902 23.3246 25.53C23.2688 25.5534 23.2193 25.5796 23.1763 25.6082C23.0529 25.6904 22.9709 25.8024 22.9722 25.9336C22.9734 26.0638 23.0563 26.1761 23.1789 26.2601C23.2326 26.2969 23.2962 26.3302 23.3693 26.3592C23.3306 26.378 23.2956 26.3984 23.2645 26.4204C23.1607 26.4941 23.0911 26.5936 23.0917 26.7109C23.0924 26.8267 23.1614 26.9279 23.2632 27.0065C23.2924 27.029 23.3252 27.0505 23.3614 27.0707C23.2186 27.1291 23.1269 27.2232 23.0967 27.3453C23.0476 27.5435 23.1815 27.7389 23.3748 27.8394C23.4228 27.8643 23.482 27.8456 23.5069 27.7976C23.5319 27.7495 23.5132 27.6903 23.4652 27.6654C23.3176 27.5887 23.2678 27.4698 23.287 27.3924C23.3026 27.3295 23.3802 27.2361 23.6171 27.2074L23.6277 28.0881L23.7257 28.1914L23.8237 28.0881L23.8343 27.2091C24.0613 27.2395 24.1364 27.3307 24.1517 27.3924C24.1708 27.4698 24.1211 27.5887 23.9735 27.6654C23.9255 27.6903 23.9068 27.7495 23.9317 27.7976C23.9567 27.8456 24.0159 27.8643 24.0639 27.8394C24.2572 27.7389 24.3911 27.5435 24.342 27.3453C24.3118 27.2232 24.2201 27.1291 24.0772 27.0707C24.1135 27.0505 24.1463 27.029 24.1755 27.0065C24.2773 26.9279 24.3463 26.8267 24.3469 26.7109C24.3476 26.5936 24.278 26.4941 24.1741 26.4204C24.1431 26.3984 24.1081 26.378 24.0694 26.3592C24.1425 26.3302 24.2061 26.2969 24.2598 26.2601C24.3824 26.1761 24.4653 26.0638 24.4665 25.9336C24.4678 25.8024 24.3858 25.6904 24.2624 25.6082C24.2193 25.5796 24.1698 25.5534 24.1141 25.53C24.222 25.4902 24.3118 25.4423 24.3836 25.3878C24.5288 25.2774 24.6058 25.1342 24.5905 24.981C24.5756 24.8314 24.4753 24.7007 24.3281 24.6054C24.2715 24.5687 24.2066 24.5362 24.1343 24.509C24.213 24.4754 24.282 24.4362 24.3408 24.3923C24.4843 24.2851 24.5725 24.145 24.5763 23.9934C24.5802 23.8398 24.497 23.7 24.3514 23.5975C24.3074 23.5664 24.2573 23.5385 24.2013 23.5139C24.3044 23.4808 24.3944 23.4397 24.4704 23.3922C24.6462 23.2824 24.7576 23.1309 24.7642 22.9598C24.7708 22.7874 24.6697 22.6298 24.4955 22.5117C24.4505 22.4812 24.4 22.4529 24.3441 22.427C24.4584 22.3997 24.5583 22.3619 24.6438 22.3161C24.8601 22.2005 24.9896 22.031 25.0158 21.8563C25.0427 21.6771 24.9567 21.5092 24.7795 21.4276C24.6081 21.3486 24.3658 21.3557 24.0749 21.4742C24.0248 21.4946 24.0007 21.5518 24.0211 21.602C24.0415 21.6521 24.0987 21.6762 24.1489 21.6558C24.4122 21.5485 24.5938 21.5579 24.6975 21.6057C24.7955 21.6508 24.8359 21.7343 24.8219 21.8273C24.8073 21.9249 24.7288 22.0484 24.5514 22.1432C24.402 22.2231 24.1857 22.2801 23.8934 22.2786L23.9123 20.6982C24.6314 20.7365 25.1457 20.6882 25.8823 20.595L25.0001 20.0069C24.7217 19.7834 24.5685 19.7309 24.3139 20.1049C24.2121 20.2292 24.0706 20.2727 23.9178 20.2355L23.9212 19.9547ZM23.0532 22.674C23.1659 22.5977 23.3332 22.531 23.5606 22.4907L23.5713 23.3882C23.3537 23.3577 23.1876 23.2981 23.0721 23.2259C22.9298 23.1371 22.8736 23.0366 22.8704 22.9523C22.8673 22.8693 22.9143 22.7681 23.0532 22.674ZM23.8908 22.493L23.8801 23.3863C24.0914 23.3554 24.2533 23.2967 24.3666 23.2259C24.5088 23.1371 24.565 23.0366 24.5683 22.9523C24.5714 22.8693 24.5244 22.7681 24.3855 22.674C24.2749 22.5991 24.1118 22.5335 23.8908 22.493ZM23.2002 23.7577C23.2836 23.699 23.4067 23.6482 23.5741 23.619L23.5834 24.3935C23.4231 24.356 23.3009 24.2992 23.2152 24.2352C23.1043 24.1524 23.0602 24.063 23.0584 23.9884C23.0565 23.9157 23.0942 23.8324 23.2002 23.7577ZM23.8773 23.6212L23.868 24.3905C24.0221 24.353 24.1401 24.2975 24.2235 24.2352C24.3344 24.1524 24.3784 24.063 24.3803 23.9884C24.3821 23.9157 24.3445 23.8324 24.2385 23.7577C24.1572 23.7005 24.0382 23.6508 23.8773 23.6212ZM23.2171 24.7699C23.3067 24.7119 23.4304 24.6631 23.5863 24.6348L23.5955 25.4044C23.4002 25.3616 23.2626 25.2992 23.1737 25.2317C23.0666 25.1502 23.0366 25.0677 23.0433 25.0005C23.0503 24.9296 23.1009 24.8452 23.2171 24.7699ZM23.8651 24.6371L23.8559 25.4016C24.0445 25.3588 24.178 25.2977 24.2649 25.2317C24.3721 25.1502 24.4021 25.0677 24.3954 25.0005C24.3883 24.9296 24.3378 24.8452 24.2215 24.7699C24.1344 24.7135 24.015 24.6657 23.8651 24.6371ZM23.285 25.7714C23.3557 25.7243 23.4591 25.6808 23.5984 25.649L23.6054 26.2291C23.4663 26.1941 23.3618 26.1478 23.2897 26.0984C23.1956 26.0338 23.1686 25.9732 23.1682 25.9318C23.1678 25.8914 23.1925 25.833 23.285 25.7714ZM23.8529 25.652L23.8461 26.2258C23.9788 26.1912 24.0791 26.1463 24.1489 26.0984C24.2431 26.0338 24.2701 25.9732 24.2705 25.9318C24.2709 25.8914 24.2462 25.833 24.1537 25.7714C24.0852 25.7258 23.9858 25.6835 23.8529 25.652ZM23.378 26.5803C23.4304 26.5431 23.5064 26.5076 23.6084 26.4791L23.6143 26.9684C23.513 26.9333 23.4365 26.8926 23.383 26.8513C23.308 26.7934 23.288 26.7429 23.2878 26.7098C23.2876 26.6782 23.3055 26.6317 23.378 26.5803ZM23.843 26.4827L23.8372 26.9639C23.9322 26.9298 24.0044 26.8908 24.0557 26.8513C24.1307 26.7934 24.1507 26.7429 24.1509 26.7098C24.1511 26.6782 24.1332 26.6317 24.0607 26.5803C24.0105 26.5447 23.9386 26.5106 23.843 26.4827Z" fill="white"/>
    </g>
    <defs>
        <clipPath id="clip0_335_8797">
            <rect width="28" height="28" fill="white" transform="translate(10 10)"/>
        </clipPath>
    </defs>
</svg>
